<svg width="30" height="30" viewBox="0 0 30 30" fill="none" xmlns="http://www.w3.org/2000/svg">
<rect width="30" height="30" rx="5" fill="#ECECEC"/>
<rect width="30" height="30" rx="5" fill="#D32C2C"/>
<path d="M23.8594 6.5625V10.7813C23.8594 10.8931 23.8149 11.0004 23.7358 11.0796C23.6567 11.1587 23.5494 11.2031 23.4375 11.2031C23.3256 11.2031 23.2183 11.1587 23.1392 11.0796C23.0601 11.0004 23.0156 10.8931 23.0156 10.7813V6.98438H19.2188C19.1069 6.98438 18.9996 6.93993 18.9204 6.86081C18.8413 6.78169 18.7969 6.67439 18.7969 6.5625C18.7969 6.45061 18.8413 6.34331 18.9204 6.26419C18.9996 6.18507 19.1069 6.14062 19.2188 6.14062H23.4375C23.5494 6.14062 23.6567 6.18507 23.7358 6.26419C23.8149 6.34331 23.8594 6.45061 23.8594 6.5625ZM10.7813 23.0156H6.98438V19.2188C6.98438 19.1069 6.93993 18.9996 6.86081 18.9204C6.78169 18.8413 6.67439 18.7969 6.5625 18.7969C6.45061 18.7969 6.34331 18.8413 6.26419 18.9204C6.18507 18.9996 6.14062 19.1069 6.14062 19.2188V23.4375C6.14062 23.5494 6.18507 23.6567 6.26419 23.7358C6.34331 23.8149 6.45061 23.8594 6.5625 23.8594H10.7813C10.8931 23.8594 11.0004 23.8149 11.0796 23.7358C11.1587 23.6567 11.2031 23.5494 11.2031 23.4375C11.2031 23.3256 11.1587 23.2183 11.0796 23.1392C11.0004 23.0601 10.8931 23.0156 10.7813 23.0156ZM23.4375 18.7969C23.3256 18.7969 23.2183 18.8413 23.1392 18.9204C23.0601 18.9996 23.0156 19.1069 23.0156 19.2188V23.0156H19.2188C19.1069 23.0156 18.9996 23.0601 18.9204 23.1392C18.8413 23.2183 18.7969 23.3256 18.7969 23.4375C18.7969 23.5494 18.8413 23.6567 18.9204 23.7358C18.9996 23.8149 19.1069 23.8594 19.2188 23.8594H23.4375C23.5494 23.8594 23.6567 23.8149 23.7358 23.7358C23.8149 23.6567 23.8594 23.5494 23.8594 23.4375V19.2188C23.8594 19.1069 23.8149 18.9996 23.7358 18.9204C23.6567 18.8413 23.5494 18.7969 23.4375 18.7969ZM10.7813 6.14062H6.5625C6.45061 6.14062 6.34331 6.18507 6.26419 6.26419C6.18507 6.34331 6.14062 6.45061 6.14062 6.5625V10.7813C6.14062 10.8931 6.18507 11.0004 6.26419 11.0796C6.34331 11.1587 6.45061 11.2031 6.5625 11.2031C6.67439 11.2031 6.78169 11.1587 6.86081 11.0796C6.93993 11.0004 6.98438 10.8931 6.98438 10.7813V6.98438H10.7813C10.8931 6.98438 11.0004 6.93993 11.0796 6.86081C11.1587 6.78169 11.2031 6.67439 11.2031 6.5625C11.2031 6.45061 11.1587 6.34331 11.0796 6.26419C11.0004 6.18507 10.8931 6.14062 10.7813 6.14062Z" fill="#ECECEC"/>
<path d="M15 15L9.9375 12.0469M15 15L20.0625 12.0469M15 15V20.9062M9.9375 12.0469L15 9.09375L20.0625 12.0469M9.9375 12.0469V17.9531L15 20.9062M20.0625 12.0469V17.9531L15 20.9062" stroke="#ECECEC" stroke-width="0.859375"/>
</svg>
