<svg width="402" height="393" viewBox="0 0 402 393" fill="none" xmlns="http://www.w3.org/2000/svg">
<path d="M104.12 149.939C104.12 149.939 110.662 166.441 132.306 167.249" stroke="#ECECEC" stroke-width="2" stroke-miterlimit="10"/>
<path d="M157.718 164.364C157.718 164.364 170.162 161.102 178.336 148.609" stroke="#ECECEC" stroke-width="2" stroke-miterlimit="10"/>
<path d="M341.478 390.81C342.722 390.037 350.513 390.81 351.98 390.81C355.171 390.825 358.356 390.519 361.486 389.899C400.721 382.033 404.205 324.568 399.241 285.978C398.182 277.886 396.366 269.91 393.819 262.156C386.472 239.455 373.308 218.424 357.229 201.162C351.251 194.749 344.033 189.1 340.113 181.061C332.94 166.337 338.553 149.261 341.891 134.32C346.335 114.267 348.198 92.4319 326.3 82.4544C280.302 61.4861 229.414 99.1161 229.414 99.1161" stroke="#ECECEC" stroke-width="2" stroke-miterlimit="10"/>
<path d="M33.7662 319.96C31.1796 332.746 31.0463 346.128 35.4462 358.35C39.3749 369.261 47.1347 380.47 57.2811 386.701C63.097 390.235 69.9474 391.674 76.6939 390.776" stroke="#ECECEC" stroke-width="2" stroke-miterlimit="10"/>
<path d="M132.297 196.985V154.199V152.937V142.738V138.938V118.254" stroke="#ECECEC" stroke-width="2" stroke-miterlimit="10"/>
<path d="M160.514 189.274V168.248C160.515 167.389 160.245 166.551 159.744 165.854C159.242 165.157 158.533 164.635 157.718 164.364L145.523 160.297V118.254" stroke="#ECECEC" stroke-width="2" stroke-miterlimit="10"/>
<path d="M132.297 154.201C135.795 155.192 141.843 156.516 145.514 155.743" stroke="#ECECEC" stroke-width="2" stroke-miterlimit="10"/>
<path d="M132.297 142.751C136.648 143.098 142.074 143.476 145.523 144.374" stroke="#ECECEC" stroke-width="2" stroke-miterlimit="10"/>
<path d="M132.297 152.937C136.208 152.386 141.914 151.186 145.523 149.626" stroke="#ECECEC" stroke-width="2" stroke-miterlimit="10"/>
<path d="M132.297 138.939C139.91 136.828 143.679 134.224 145.523 132.05" stroke="#ECECEC" stroke-width="2" stroke-miterlimit="10"/>
<path d="M66.272 128.453L49.7524 129.795" stroke="#ECECEC" stroke-width="2" stroke-miterlimit="10"/>
<path d="M64.1921 121.17L47.8281 122.495" stroke="#ECECEC" stroke-width="2" stroke-miterlimit="10"/>
<path d="M243.88 106.606L315.483 100.789C316.465 100.71 317.438 101.025 318.188 101.663C318.938 102.301 319.404 103.211 319.483 104.193C319.483 104.286 319.483 104.384 319.483 104.495C319.485 105.429 319.134 106.33 318.5 107.016C317.866 107.703 316.997 108.125 316.065 108.197L246.845 113.81" stroke="#ECECEC" stroke-width="2" stroke-miterlimit="10"/>
<path d="M134.252 122.951L118.768 124.196" stroke="#ECECEC" stroke-width="2" stroke-miterlimit="10"/>
<path d="M175.033 119.641L144.261 122.134" stroke="#ECECEC" stroke-width="2" stroke-miterlimit="10"/>
<path d="M132.848 115.606L121.577 116.522" stroke="#ECECEC" stroke-width="2" stroke-miterlimit="10"/>
<path d="M171.771 112.454L144.452 114.658" stroke="#ECECEC" stroke-width="2" stroke-miterlimit="10"/>
<path d="M98.6089 327.84C98.9067 327.671 99.2 327.498 99.4978 327.32C102.209 325.68 102.564 323.289 100.316 321.183C90.7158 312.196 79.5694 304.508 67.3475 299.574C56.6545 295.254 44.0326 292.552 32.4951 293.988C27.1619 294.654 13.8023 297.29 17.2555 305.579C17.9977 307.356 19.4021 308.77 20.811 310.085C39.4372 327.409 74.1073 341.827 98.6089 327.84Z" stroke="#ECECEC" stroke-width="2" stroke-miterlimit="10"/>
<path d="M18.5222 307.952C0.851554 286.89 22.5221 228.736 31.7796 204.11C35.7528 193.515 35.9573 182.022 35.2951 170.831C35.0906 166.858 30.1574 142.17 37.2683 142.863C38.3883 142.974 39.2683 143.778 40.0105 144.641C42.0793 147.029 43.3477 150.005 43.6371 153.152C44.9241 151.868 46.3952 150.784 48.0014 149.934C48.9014 149.45 49.8409 149.044 50.8102 148.721C51.5648 148.397 52.387 148.263 53.2057 148.329C55.7745 148.774 56.5478 152.16 56.0101 154.729C55.099 159.378 51.2991 161.178 48.8369 164.787C48.5196 165.257 48.2405 165.752 48.0014 166.267C46.1437 170.116 46.3614 174.813 46.6681 179.04C47.1138 184.44 48.5005 189.721 50.7658 194.644" stroke="#ECECEC" stroke-width="2" stroke-miterlimit="10"/>
<path d="M94.4756 273.824C99 288.375 101.635 303.49 101.791 318.801C101.822 320.392 101.791 321.97 101.747 323.561V323.747C101.753 324.044 101.741 324.341 101.711 324.636" stroke="#ECECEC" stroke-width="2" stroke-miterlimit="10"/>
<path d="M48.0014 166.265C48.0014 166.265 36.1928 163.354 33.7795 158.119" stroke="#ECECEC" stroke-width="2" stroke-miterlimit="10"/>
<path d="M48.0014 149.938C48.0014 149.938 55.9656 116.161 39.4772 118.383C22.9887 120.605 33.7662 144.085 33.7662 144.085" stroke="#ECECEC" stroke-width="2" stroke-miterlimit="10"/>
<path d="M39.9838 132.276C43.4175 132.276 46.2014 129.492 46.2014 126.058C46.2014 122.624 43.4175 119.84 39.9838 119.84C36.5501 119.84 33.7662 122.624 33.7662 126.058C33.7662 129.492 36.5501 132.276 39.9838 132.276Z" stroke="#ECECEC" stroke-width="2" stroke-miterlimit="10"/>
<path d="M288.746 221.118C290.254 222.481 292.215 223.235 294.248 223.233C298.377 223.233 301.737 220.238 301.737 216.567C301.737 207.897 301.726 199.231 301.706 190.567C301.706 185.416 302.808 175.626 294.248 175.626C288.381 175.626 286.742 180.243 286.759 184.625V189.403" stroke="#ECECEC" stroke-width="2" stroke-miterlimit="10"/>
<path d="M288.746 166.213C289.462 166.948 290.318 167.534 291.262 167.937C292.206 168.34 293.221 168.551 294.248 168.559C295.229 168.56 296.201 168.367 297.108 167.992C298.015 167.616 298.838 167.066 299.532 166.373C300.226 165.679 300.776 164.855 301.151 163.948C301.527 163.042 301.719 162.07 301.719 161.088C301.719 151.408 301.709 141.729 301.688 132.049C301.688 126.311 302.808 115.356 294.248 115.356C288.382 115.356 286.742 120.525 286.742 125.414V129.414" stroke="#ECECEC" stroke-width="2" stroke-miterlimit="10"/>
<path d="M292.932 175.605H295.572V167.249H292.932V175.605Z" fill="#ECECEC"/>
<path d="M281.279 234.629C285.408 234.629 288.755 231.633 288.755 227.94C288.755 219.274 288.745 210.609 288.724 201.945C288.724 196.799 289.835 187.004 281.279 187.004C275.417 187.004 273.773 191.63 273.777 196.003C273.795 205.935 273.804 215.871 273.804 225.811C273.804 227.385 273.804 228.989 274.382 230.478C275.342 233.007 278.337 234.629 281.279 234.629Z" stroke="#ECECEC" stroke-width="2" stroke-miterlimit="10"/>
<path d="M281.275 179.968C283.258 179.968 285.159 179.18 286.561 177.778C287.963 176.377 288.75 174.475 288.75 172.493C288.75 162.813 288.74 153.133 288.719 143.454C288.719 137.703 289.83 126.761 281.275 126.761C275.413 126.761 273.769 131.93 273.773 136.814C273.773 147.913 273.782 159.011 273.8 170.111C273.8 171.888 273.8 173.666 274.373 175.328C275.337 178.15 278.337 179.968 281.275 179.968Z" stroke="#ECECEC" stroke-width="2" stroke-miterlimit="10"/>
<path d="M279.96 186.999H282.6V178.643H279.96V186.999Z" fill="#ECECEC"/>
<path d="M281.893 126.863C279.702 121.472 280.084 116.05 281.004 111.037C281.32 109.348 281.697 107.726 282.057 106.148C282.406 104.639 283.254 103.291 284.464 102.324C285.674 101.356 287.175 100.824 288.724 100.815H288.755C290.458 100.814 292.099 101.448 293.359 102.593" stroke="#ECECEC" stroke-width="2" stroke-miterlimit="10"/>
<path d="M295.746 109.863C295.635 113.419 294.248 115.365 294.248 115.365" stroke="#ECECEC" stroke-width="2" stroke-miterlimit="10"/>
<path d="M245.387 360.554C245.174 361.975 244.75 363.356 244.129 364.652C244.049 363.03 245.387 360.554 245.387 360.554Z" fill="#2E2E2E"/>
<path d="M215.752 358.866C216.13 355.461 218.335 350.826 220.197 345.533C218.717 350.417 216.428 355.381 215.752 358.866Z" fill="#2E2E2E"/>
<path d="M221.45 363.5C220.343 364.1 218.912 364.62 217.286 363.407C218.641 363.805 220.078 363.837 221.45 363.5Z" fill="#2E2E2E"/>
<path d="M220.97 341.412C220.971 340.277 220.738 339.153 220.286 338.111C219.833 337.07 219.17 336.133 218.339 335.359C219.739 336.466 221.112 338.15 220.97 341.412Z" fill="#2E2E2E"/>
<path d="M223.459 362.79C224.004 362.521 224.522 362.199 225.005 361.83C224.539 362.589 224.173 363.405 223.917 364.257C223.868 363.377 223.712 362.95 223.459 362.79Z" fill="#2E2E2E"/>
<path d="M230.663 367.994C228.756 369.114 226.663 369.327 225.33 368.167C227.179 369.065 229.09 368.669 230.663 367.994Z" fill="#2E2E2E"/>
<path d="M234.307 367.381C233.961 366.936 233.583 366.608 232.974 366.719C233.241 366.545 233.463 366.385 233.65 366.274C234.339 365.803 234.196 366.545 234.307 367.381Z" fill="#2E2E2E"/>
<path d="M236.307 369.016C238.214 368.861 240.645 368.656 242.552 366.825C242.441 366.999 242.347 367.208 242.236 367.425C241.178 369.616 238.423 369.016 236.307 369.016Z" fill="#2E2E2E"/>
<path d="M244.68 365.816C244.266 365.713 243.832 365.713 243.418 365.816C243.687 365.448 243.925 365.059 244.129 364.652C244.116 364.876 244.159 365.101 244.255 365.305C244.351 365.508 244.498 365.684 244.68 365.816Z" fill="#2E2E2E"/>
<path d="M246.68 366.244C246.334 366.181 246.018 366.101 245.734 366.039C247.752 365.928 249.911 366.008 251.6 364.164C250.338 365.63 248.605 366.621 246.68 366.244Z" fill="#2E2E2E"/>
<path d="M252.116 363.501C252.322 363.193 252.508 362.871 252.671 362.537C252.508 362.87 252.322 363.193 252.116 363.501Z" fill="#2E2E2E"/>
<path d="M253.449 360.617C253.356 360.924 253.254 361.217 253.151 361.506C253.268 361.216 253.367 360.919 253.449 360.617Z" fill="#2E2E2E"/>
<path d="M252.676 362.537C252.851 362.196 253.008 361.846 253.147 361.489C253.015 361.849 252.857 362.199 252.676 362.537Z" fill="#2E2E2E"/>
<path d="M253.587 347.893C253.505 347.759 253.397 347.643 253.27 347.552C253.142 347.46 252.998 347.395 252.845 347.36L253.854 346.84C253.716 347.176 253.626 347.531 253.587 347.893Z" fill="#2E2E2E"/>
<path d="M326.292 314.992C312.341 329.053 294.244 333.627 294.244 333.627C295.017 346.071 292.306 387.923 292.101 389.75C291.897 391.576 281.835 390.963 281.835 390.963L238.547 390.901C239.881 390.505 241.147 390.096 242.329 389.638C263.311 381.639 264.702 365.599 261.627 354.044C259.893 347.515 258.267 345.6 256.898 345.355C260.68 343.577 266.591 341.084 272.315 339.698C281.773 337.413 313.003 328.88 322.949 317.703C323.921 316.636 325.048 315.722 326.292 314.992Z" fill="#A21219" fill-opacity="0.8"/>
<path d="M322.558 226.305C322.558 226.305 307.67 212.808 290.919 230.936C279.111 243.722 278.635 253.478 279.395 258.131C279.813 259.085 280.094 260.093 280.231 261.126L281.728 262.135L280.702 262.037C282.564 265.806 288.977 280.486 281.017 290.006C271.809 301.01 260.284 315.338 229.183 327.462C229.183 327.462 213.735 322.925 209.526 333.484C209.526 333.484 214.521 332.596 216.539 334.067C207.255 333.156 176.54 333.862 176.54 333.862C176.54 333.862 157.483 336.684 152.767 353.862C148.052 371.039 154.363 374.657 163.758 385.674C165.536 387.741 168.647 389.461 172.696 390.816L149.016 390.785L151.021 387.301C153.243 381.874 147.852 380.834 147.852 380.834C142.363 380.363 143.781 377.145 143.781 377.145C137.95 340.48 139.15 285.539 140.852 271.602C142.554 257.664 140.061 261.717 140.061 261.717C135.666 266.477 110.08 271.602 110.08 271.602C122.168 264.286 126.346 254.713 128.444 232.127C130.492 210.181 118.733 202.097 118.053 201.639C118.048 201.637 118.043 201.636 118.037 201.636C118.032 201.636 118.027 201.637 118.022 201.639L163.692 187.906L194.513 183.146C194.042 184.6 193.237 184.222 191.691 184.44L188.966 184.835C189.072 184.841 189.173 184.875 189.261 184.932C189.35 184.99 189.421 185.07 189.469 185.164C189.506 185.276 189.527 185.392 189.531 185.511C189.833 191.884 193.975 197.381 199.339 200.586C206.761 205.03 217.215 204.919 224.814 200.866C230.268 197.95 233.027 192.355 232.774 186.284C264.48 190.186 300.559 202.417 322.558 226.305Z" fill="#A21219" fill-opacity="0.8"/>
<path d="M189.14 332.934L195.304 337.334L194.784 337C190.352 334.35 185.282 332.957 180.118 332.969L189.14 332.934Z" fill="#D7E8F0"/>
<path d="M233.627 364.826C233.614 365.034 233.561 365.237 233.472 365.426C233.45 364.635 233.645 364.195 233.627 364.826Z" fill="#D7E8F0"/>
<path d="M262.809 361.532C262.807 369.111 259.795 376.38 254.435 381.74C249.075 387.099 241.807 390.111 234.227 390.113H180.118C186.052 390.114 191.84 388.267 196.677 384.828C201.514 381.39 205.161 376.531 207.111 370.926C209.061 365.321 209.217 359.248 207.559 353.55C205.9 347.851 202.509 342.811 197.855 339.128C197.036 338.49 196.183 337.897 195.3 337.35H220.188C220.943 338.595 222.014 341.857 219.37 349.048C215.743 358.883 213.899 362.918 218.926 363.785C223.952 364.652 224.703 359.785 224.997 361.847C225.29 363.909 221.668 365.629 225.312 368.185C228.574 370.469 232.627 367.349 233.463 365.443C233.463 366.843 234.125 369.336 237.734 369.114C243.409 368.767 244.4 363.438 244.4 363.438C244.498 364.189 244.848 364.885 245.392 365.412C245.936 365.94 246.642 366.267 247.396 366.34C250.12 366.656 254.649 362.838 254.222 357.07C253.796 351.301 252.125 346.603 255.956 345.341C256.436 345.201 256.867 344.928 257.2 344.554C260.854 349.459 262.822 355.415 262.809 361.532Z" fill="#ECECEC"/>
<path d="M242.707 148.733C242.639 148.742 242.571 148.742 242.503 148.733C242.694 149.662 243.041 150.653 243.276 151.649C243.462 152.395 243.542 153.164 243.512 153.933C243.258 157.547 240.707 159.498 237.236 159.595C237.322 160.423 237.156 161.257 236.759 161.988C236.363 162.719 235.755 163.314 235.014 163.693C233.156 164.671 230.125 164.449 228.708 162.733C227.054 160.729 227.872 158.253 228.885 156.067C229.245 155.293 229.61 154.569 229.908 153.907C230.272 153.084 230.588 152.267 230.868 151.431C231.858 148.343 232.624 145.186 233.156 141.987C233.817 138.762 234.254 135.495 234.463 132.209C234.245 131.405 234.383 130.254 234.067 129.418C233.61 128.122 232.776 126.993 231.672 126.174C229.401 124.503 226.388 124.614 223.979 123.134C221.8 121.774 220.082 119.791 219.046 117.441C218.837 116.952 218.65 116.321 218.366 115.77C218.234 115.474 218.04 115.21 217.797 114.997C216.708 114.086 216.081 115.69 215.419 116.33C214.736 116.962 213.925 117.441 213.041 117.735C212.157 118.029 211.221 118.13 210.295 118.032C209.595 117.941 208.914 117.74 208.277 117.437C207.809 117.181 207.37 116.874 206.97 116.521C206.498 116.059 205.948 115.686 205.344 115.419C204.211 114.974 204.148 116.868 203.988 117.512C203.673 118.681 203.122 119.628 202.019 120.179C201.406 120.48 200.734 120.643 200.051 120.654C199.255 120.683 198.46 120.576 197.7 120.339C196.967 120.12 196.271 119.795 195.633 119.374C195.519 119.296 195.385 119.251 195.246 119.245C195.108 119.24 194.971 119.274 194.851 119.343C194.731 119.412 194.633 119.514 194.568 119.637C194.504 119.76 194.475 119.898 194.486 120.036C194.704 126.201 188.935 128.347 186.571 128.961C185.682 138.738 188.349 149.565 193.682 157.951C193.482 159.201 192.973 160.382 192.202 161.386C188.304 162.364 183.811 161.311 182.127 157.951C180.349 154.396 180.58 149.422 183.358 146.867C181.433 146.574 180.891 143.725 181.998 142.054C182.091 141.898 182.14 141.805 182.073 141.645C181.838 141 179.007 140.467 178.233 140.218C177.129 139.821 176.133 139.173 175.323 138.324C174.513 137.476 173.912 136.451 173.567 135.329C171.927 129.921 176.087 124.152 181.291 122.841C179.745 120.116 177.696 117.908 176.847 114.757C175.998 111.606 176.482 108.308 178.896 105.957C179.871 105.028 181.062 104.356 182.361 104.002C183.661 103.648 185.028 103.623 186.34 103.93C187.107 104.489 187.787 105.159 188.358 105.917C188.006 105.4 187.725 104.837 187.522 104.246C189.285 104.846 190.832 105.955 191.966 107.432C189.935 104.388 190.691 100.241 192.98 97.5615C195.735 94.3305 201.157 93.6194 204.944 95.2771C205.217 95.4047 205.48 95.5531 205.73 95.7216C206.095 96.166 206.455 96.6104 206.819 97.0282C206.861 96.9144 206.909 96.8033 206.962 96.6949C207.727 97.4833 208.452 98.3095 209.135 99.1704C211.597 92.1883 221.352 92.1706 226.508 95.8149C227.722 96.6798 228.716 97.8184 229.41 99.1392C229.674 100.299 229.652 101.505 229.348 102.655C229.032 103.761 229.285 104.597 229.992 104.832C230.525 104.961 231.087 104.888 231.57 104.628C233.463 103.775 235.023 102.735 237.214 102.97C244.387 103.73 249.587 113.028 245.347 119.099C245.097 119.476 244.813 119.83 244.498 120.156C243.898 120.77 242.556 121.45 242.276 122.299C242.269 122.319 242.269 122.341 242.276 122.361C241.743 124.139 245.698 124.552 246.756 125.027C256.062 128.916 254.089 148.133 242.707 148.733Z" fill="black"/>
<path d="M188.966 184.808L191.691 184.413C192.441 184.309 193.148 183.997 193.731 183.512C194.314 183.028 194.749 182.39 194.988 181.671C195.084 181.422 195.147 181.162 195.175 180.897L195.206 180.68L195.553 178.062L197.904 163.511" stroke="black" stroke-width="2" stroke-miterlimit="10"/>
<path d="M228.708 162.751L228.93 182.617V183.248C228.941 183.89 229.173 184.508 229.587 184.998C230 185.489 230.57 185.822 231.201 185.941L232.792 186.257" stroke="black" stroke-width="2" stroke-miterlimit="10"/>
<path d="M186.54 128.934C185.451 140.663 189.518 153.92 197.148 162.653C211.37 178.941 223.37 162.653 223.37 162.653" stroke="black" stroke-width="2" stroke-miterlimit="10"/>
<path d="M234.605 132.569C234.192 131.791 234.436 130.391 234.076 129.409C233.607 128.119 232.771 126.994 231.672 126.173C229.396 124.511 226.383 124.613 223.979 123.142C221.79 121.775 220.063 119.78 219.023 117.418C218.694 116.671 218.437 115.525 217.788 114.982C216.699 114.094 216.068 115.671 215.397 116.316C214.455 117.195 213.269 117.77 211.996 117.967C210.722 118.164 209.418 117.972 208.255 117.418C207.175 116.889 206.433 115.822 205.308 115.4C204.184 114.978 204.122 116.84 203.953 117.493C203.646 118.653 203.095 119.6 201.988 120.16C200.019 121.133 197.326 120.493 195.606 119.342C195.491 119.264 195.356 119.22 195.216 119.216C195.076 119.211 194.939 119.246 194.818 119.316C194.697 119.386 194.599 119.488 194.534 119.612C194.469 119.735 194.44 119.875 194.451 120.013C194.722 127.769 185.54 129.151 185.54 129.151" stroke="black" stroke-width="2" stroke-miterlimit="10"/>
<path d="M199.491 145.986C204.081 145.986 207.802 142.266 207.802 137.676C207.802 133.085 204.081 129.365 199.491 129.365C194.901 129.365 191.18 133.085 191.18 137.676C191.18 142.266 194.901 145.986 199.491 145.986Z" stroke="black" stroke-width="2" stroke-miterlimit="10"/>
<path d="M221.037 145.254C225.627 145.254 229.348 141.533 229.348 136.943C229.348 132.353 225.627 128.632 221.037 128.632C216.447 128.632 212.726 132.353 212.726 136.943C212.726 141.533 216.447 145.254 221.037 145.254Z" stroke="black" stroke-width="2" stroke-miterlimit="10"/>
<path d="M196.02 138.516C196.02 138.516 199.366 142.355 202.815 138.516" stroke="black" stroke-width="2" stroke-miterlimit="10"/>
<path d="M217.637 138.516C217.637 138.516 220.988 142.355 224.432 138.516" stroke="black" stroke-width="2" stroke-miterlimit="10"/>
<path d="M207.806 137.677C207.806 137.677 209.69 134.61 212.721 136.944" stroke="black" stroke-width="2" stroke-miterlimit="10"/>
<path d="M203.984 125.347C203.984 125.347 195.357 118.752 188.118 124.974" stroke="black" stroke-width="2" stroke-miterlimit="10"/>
<path d="M229.219 121.885C229.219 121.885 218.974 118.308 214.028 126.45" stroke="black" stroke-width="2" stroke-miterlimit="10"/>
<path d="M193.38 157.657C193.36 159.038 192.906 160.378 192.083 161.486C191.26 162.595 190.109 163.417 188.793 163.835C184.535 165.097 180.029 161.897 178.184 158.208C177.51 156.934 177.201 155.498 177.293 154.06C177.385 152.621 177.873 151.236 178.704 150.057C178.779 149.939 178.828 149.807 178.85 149.669C178.872 149.531 178.865 149.389 178.831 149.254C178.796 149.118 178.735 148.991 178.65 148.881C178.564 148.769 178.458 148.677 178.336 148.609C177.508 148.112 176.824 147.409 176.349 146.568C175.875 145.728 175.627 144.778 175.629 143.813C175.63 143.406 175.675 143.002 175.762 142.604C175.789 142.459 175.786 142.31 175.753 142.167C175.719 142.023 175.656 141.888 175.567 141.77C175.479 141.652 175.366 141.554 175.238 141.482C175.109 141.41 174.967 141.365 174.82 141.351C174.385 141.313 173.954 141.24 173.531 141.133C172.346 140.713 171.275 140.021 170.404 139.112C169.534 138.204 168.888 137.105 168.518 135.902C166.74 130.085 171.234 123.871 176.829 122.471C175.158 119.538 172.949 117.174 172.034 113.769C171.118 110.365 171.656 106.845 174.256 104.308C178.278 100.37 185.1 101.596 188.349 105.916C186.158 102.636 186.98 98.1744 189.437 95.29C192.402 91.8234 198.233 91.0679 202.299 92.8323C204.242 93.6856 205.486 95.45 206.81 97.0099C209.477 89.5213 219.943 89.4546 225.477 93.4012C228.379 95.4633 230.272 99.2188 229.325 102.636C228.836 104.374 229.734 105.414 231.547 104.61C233.441 103.774 235.001 102.716 237.192 102.952C244.792 103.756 250.183 114.161 244.476 120.138C243.876 120.769 242.534 121.432 242.254 122.28C241.605 124.094 245.645 124.534 246.698 124.991C256.125 128.951 254.058 148.373 242.503 148.764C242.849 150.422 243.64 152.248 243.512 153.951C243.258 157.564 240.707 159.515 237.236 159.626C237.49 161.253 236.481 162.937 235.014 163.71C233.156 164.701 230.125 164.466 228.708 162.75C226.485 160.039 228.774 156.488 229.908 153.906C231.579 150.12 232.396 146.04 233.156 141.986C233.848 138.63 234.294 135.227 234.49 131.805V131.662" stroke="black" stroke-width="2" stroke-miterlimit="10"/>
<path d="M102.787 45.3851L99.4 58.5803H99.4934L100.644 55.5715L124.746 36.9365L127.19 27.3367L102.787 45.3851ZM111.564 17.8659C110.946 18.1944 110.403 18.649 109.972 19.2001C109.54 19.7512 109.229 20.3867 109.058 21.0658L104.089 40.3897L128.697 21.3769L132.417 6.75507L111.564 17.8659ZM115.706 25.4212C115.408 26.9367 114.48 28.0389 113.626 27.8789C112.773 27.7189 112.333 26.3368 112.649 24.8079C112.964 23.2791 113.88 22.1724 114.733 22.3458C115.586 22.5191 116.008 23.8657 115.706 25.3946V25.4212ZM103.262 57.5981L103.973 57.407C104.255 57.2888 104.557 57.2297 104.862 57.2337C105.199 57.235 105.531 57.3119 105.834 57.4581C106.137 57.6048 106.404 57.8172 106.614 58.0803C106.824 58.3434 106.973 58.6501 107.049 58.9781C107.125 59.3061 107.126 59.647 107.053 59.9758L102.987 76.0865L115.693 72.6199L123.275 42.7541L103.262 57.5981Z" fill="#ECECEC"/>
<path d="M95.5778 213.789C97.3111 200.314 98.12 186.572 99.8133 172.995L100.089 170.87C100.564 167.199 101.124 163.528 101.809 159.897C101.831 159.722 101.864 159.548 101.907 159.377C102.298 157.226 102.729 155.093 103.24 152.955C104.693 146.56 108.382 141.88 111.982 136.671L112.208 136.111C119.99 124.783 124.299 111.43 124.608 97.69C124.693 92.7212 124.497 82.8992 118.799 80.8637C115.599 79.7171 112.208 81.9526 110.435 84.5081C109.694 85.5605 109.097 86.7067 108.657 87.9169" stroke="black" stroke-width="2" stroke-miterlimit="10"/>
<path d="M67.0276 147.352C61.3655 167.64 51.9391 186.751 47.3036 207.319C43.0504 226.159 41.7705 253.576 59.6189 266.216C75.3029 277.326 98.1156 274.589 115.644 270.349C120.747 269.135 125.77 267.608 130.684 265.776C134.47 264.371 138.017 262.527 141.719 261.016C141.719 261.016 134.923 328.694 144.385 380.528" stroke="black" stroke-width="2" stroke-miterlimit="10"/>
<path d="M67.032 147.356L67.9698 143.987C69.2182 139.519 68.9173 134.761 67.1164 130.485L65.2587 126.041C64.0454 122.343 63.6676 120.552 65.1876 116.935C65.9098 115.229 66.9218 113.661 68.1786 112.299C71.8496 108.251 77.0184 106.237 82.3383 105.553C87.6581 104.868 93.5424 105.402 97.8267 108.851C100.733 111.197 103.471 116.77 101.587 120.406C100.204 123.072 97.2845 123.828 94.7957 122.877C93.9255 122.554 93.142 122.034 92.5069 121.357C89.5736 118.281 83.1738 117.655 80.9783 120.641" stroke="black" stroke-width="2" stroke-miterlimit="10"/>
<path d="M69.4052 102.877C68.9608 101.161 69.0275 98.9926 70.0496 96.2105C71.5163 92.2328 75.7873 89.6195 79.9516 87.904C81.4716 87.2729 82.9826 86.7574 84.3204 86.3529C88.8625 84.953 93.8446 84.2152 98.6667 84.7041C100.297 84.8645 101.91 85.1725 103.484 85.6241C105.3 86.1503 107.037 86.9169 108.649 87.904C112.648 90.3439 115.315 94.0594 116.946 98.9348C118.355 103.139 118.902 108.139 115.408 110.766" stroke="black" stroke-width="2" stroke-miterlimit="10"/>
<path d="M102.173 117.077L103.413 119.552C104.964 121.255 107.115 122.33 110.08 121.592C115.857 120.152 116.435 115.37 115.413 110.784C115.24 109.952 115.018 109.131 114.746 108.326C113.413 104.286 111.293 101.033 108.36 98.6597C106.274 96.974 103.864 95.7336 101.28 95.0154C99.179 94.4078 97.012 94.0603 94.8267 93.9798C90.5211 93.8438 86.2234 94.4452 82.1204 95.7576C78.0138 97.0153 72.4007 99.1797 69.4096 102.895C68.7399 103.71 68.2114 104.631 67.8452 105.62C66.9253 108.117 66.7697 110.144 67.0941 111.779L67.383 113.264" stroke="black" stroke-width="2" stroke-miterlimit="10"/>
<path d="M86.7248 94.6096V94.5963" stroke="black" stroke-width="2" stroke-miterlimit="10"/>
<path d="M151.305 385.776C151.268 387.112 150.713 388.381 149.756 389.314C148.8 390.247 147.517 390.772 146.181 390.776H102.787C101.812 390.777 100.858 390.491 100.044 389.954C100.077 388.621 100.628 387.355 101.582 386.423C102.535 385.491 103.814 384.969 105.147 384.967H148.563C149.535 384.975 150.484 385.256 151.305 385.776Z" fill="#D7E8F0"/>
<path d="M151.305 385.776C151.268 387.112 150.713 388.381 149.756 389.314C148.8 390.247 147.517 390.772 146.181 390.776H102.787C101.812 390.777 100.858 390.491 100.044 389.954C100.077 388.621 100.628 387.355 101.582 386.423C102.535 385.491 103.814 384.969 105.147 384.967H148.563C149.535 384.975 150.484 385.256 151.305 385.776Z" fill="#ECECEC"/>
<path d="M99.4133 58.5897L109.062 21.0574C109.238 20.3805 109.553 19.7476 109.986 19.1987C110.419 18.6493 110.961 18.1957 111.577 17.8662L141.354 2L123.933 70.3627L102.933 76.087" stroke="black" stroke-width="2" stroke-miterlimit="10"/>
<path d="M91.8091 120.725V120.739L90.4136 126.298L79.5472 126.325L80.9694 120.654L80.9871 120.641" stroke="black" stroke-width="2" stroke-linecap="round" stroke-linejoin="round"/>
<path d="M89.9647 85.0418L96.4445 59.3714L103.973 57.3892C104.247 57.2706 104.542 57.2088 104.84 57.207C105.177 57.2093 105.509 57.2875 105.812 57.435C106.115 57.5826 106.382 57.7959 106.592 58.0595C106.802 58.3234 106.95 58.6305 107.026 58.959C107.102 59.2874 107.104 59.6287 107.031 59.9581L100.76 85.0152" stroke="black" stroke-width="2" stroke-linecap="round" stroke-linejoin="round"/>
<path d="M108.386 78.2238L106.32 86.6725" stroke="black" stroke-width="2" stroke-linecap="round" stroke-linejoin="round"/>
<path d="M97.3689 123.25L95.2312 131.979" stroke="black" stroke-width="2" stroke-linecap="round" stroke-linejoin="round"/>
<path d="M90.4136 126.298L95.2312 131.978H84.5204L79.5472 126.325L90.4136 126.298Z" stroke="black" stroke-width="2" stroke-linecap="round" stroke-linejoin="round"/>
<path d="M115.719 25.3972C116.023 23.8711 115.584 22.4973 114.739 22.3289C113.894 22.1609 112.963 23.2617 112.659 24.7879C112.355 26.3141 112.793 27.6879 113.639 27.8558C114.484 28.0243 115.415 26.9234 115.719 25.3972Z" fill="black"/>
<path d="M151.536 362.216C151.537 367.868 153.214 373.394 156.355 378.093C159.497 382.793 163.96 386.456 169.183 388.619C174.406 390.781 180.152 391.346 185.696 390.243C191.241 389.14 196.333 386.417 200.33 382.42C204.326 378.422 207.048 373.33 208.15 367.786C209.253 362.241 208.687 356.495 206.523 351.273C204.36 346.05 200.696 341.587 195.996 338.447C191.296 335.306 185.77 333.63 180.118 333.63C176.364 333.629 172.646 334.368 169.178 335.804C165.709 337.24 162.558 339.346 159.904 342C157.249 344.655 155.144 347.807 153.708 351.276C152.273 354.744 151.535 358.462 151.536 362.216Z" stroke="black" stroke-width="2" stroke-miterlimit="10"/>
<path d="M102.787 390.79H146.181C149.016 390.79 151.314 388.491 151.314 385.657C151.314 382.822 149.016 380.524 146.181 380.524H102.787C99.9515 380.524 97.6534 382.822 97.6534 385.657C97.6534 388.491 99.9515 390.79 102.787 390.79Z" stroke="black" stroke-width="2" stroke-miterlimit="10"/>
<path d="M95.5778 207.523C103.222 206.155 110.662 203.968 118.039 201.612C124.964 199.39 131.852 197.026 138.821 194.99C147.096 192.595 155.434 190.359 163.869 188.528C168.158 187.6 172.478 186.777 176.811 186.133C177.473 186.04 178.144 185.942 178.798 185.866C180.358 185.657 181.935 185.471 183.513 185.297C185.091 185.124 186.758 184.982 188.402 184.791C188.595 184.76 188.791 184.76 188.984 184.791C189.09 184.797 189.191 184.831 189.279 184.888C189.367 184.946 189.438 185.026 189.486 185.12C189.524 185.232 189.545 185.348 189.549 185.466C189.851 191.839 193.993 197.337 199.357 200.541C206.779 204.986 217.232 204.875 224.832 200.821C230.285 197.906 233.045 192.311 232.792 186.24C264.48 190.168 300.55 202.399 322.567 226.265L322.661 226.363C328.734 232.9 333.635 240.436 337.149 248.638C347.371 272.851 342.54 302.899 320.941 319.303C309.923 327.676 296.635 333.08 283.057 337.022C273.489 339.831 260.911 341.186 252.836 347.351" stroke="black" stroke-width="2" stroke-miterlimit="10"/>
<path d="M225.005 360.922C224.881 360.896 224.743 360.851 224.614 360.811" stroke="black" stroke-width="2" stroke-miterlimit="10"/>
<path d="M268.431 246.13C276.351 250.921 281.355 262.197 283.733 270.756C287.084 282.814 280.564 293.245 271.809 301.009C267.511 304.826 262.751 308.004 258.085 311.333C249.583 317.413 240.903 323.053 231.227 327.084C229.801 327.679 228.281 327.461 226.783 327.173C224.89 326.817 223.05 326.208 221.134 325.981C219.001 325.733 217.183 326.479 215.357 327.555C212.616 329.186 210.111 331.182 207.908 333.488L180.118 333.635C187.698 333.635 194.968 336.646 200.328 342.006C205.688 347.366 208.699 354.636 208.699 362.216C208.699 369.796 205.688 377.066 200.328 382.426C194.968 387.786 187.698 390.797 180.118 390.797H234.232C239.585 390.797 244.832 389.294 249.372 386.457C253.913 383.621 257.565 379.566 259.913 374.755C262.261 369.943 263.211 364.569 262.653 359.245C262.096 353.92 260.054 348.86 256.76 344.639" stroke="black" stroke-width="2" stroke-miterlimit="10"/>
<path d="M187.78 362.71C187.781 363.737 187.58 364.753 187.187 365.702C186.795 366.651 186.22 367.512 185.494 368.239C184.769 368.965 183.907 369.541 182.958 369.933C182.01 370.326 180.993 370.528 179.967 370.527C177.926 370.479 175.985 369.634 174.56 368.174C173.134 366.713 172.335 364.753 172.335 362.712C172.335 360.671 173.134 358.711 174.56 357.25C175.985 355.79 177.926 354.945 179.967 354.897C180.993 354.896 182.009 355.098 182.957 355.49C183.906 355.883 184.767 356.458 185.493 357.184C186.218 357.91 186.794 358.771 187.186 359.719C187.578 360.667 187.78 361.684 187.78 362.71Z" fill="#ECECEC"/>
<path d="M246.147 349.808C246.596 351.21 246.8 352.679 246.747 354.15C246.723 355.656 246.493 357.151 246.063 358.594C245.92 359.083 245.769 359.559 245.618 360.021C245.547 360.203 245.48 360.368 245.409 360.537C244.98 361.458 244.648 362.422 244.418 363.412C244.236 364.505 244.458 365.536 245.752 366.025C246.436 366.237 247.159 366.295 247.869 366.196C248.578 366.097 249.257 365.843 249.858 365.452C255.476 361.417 254.747 353.626 252.876 347.355C252.458 345.955 251.987 344.63 251.494 343.444" stroke="black" stroke-width="2" stroke-miterlimit="10"/>
<path d="M244.56 362.682C243.805 364.638 242.338 367.127 240.561 368.256C240.561 368.256 240.534 368.256 240.521 368.282C239.727 368.74 238.843 369.018 237.93 369.095C237.018 369.172 236.099 369.046 235.241 368.727C232.881 367.669 233.547 365.322 234.427 363.353C234.707 362.749 234.987 362.193 235.227 361.718C237.178 357.638 237.578 353.5 237.116 348.781" stroke="black" stroke-width="2" stroke-miterlimit="10"/>
<path d="M234.445 363.341C233.974 364.51 232.023 367.426 230.108 368.475C228.676 369.261 226.61 369.217 225.321 368.172C222.828 366.164 224.223 362.51 225.361 360.15C227.325 356.071 228.294 351 227.103 346.546" stroke="black" stroke-width="2" stroke-miterlimit="10"/>
<path d="M207.944 333.489C211.57 333.489 213.926 333.609 215.055 333.698C215.566 333.731 216.068 333.855 216.535 334.067C224.654 337.982 218.348 352.573 216.624 356.146C215.735 358.017 214.539 362.168 217.295 363.408C218.071 363.694 218.9 363.807 219.724 363.74C220.549 363.672 221.348 363.426 222.068 363.017C223.634 362.029 224.933 360.673 225.854 359.066C225.854 359.066 225.854 359.04 225.881 359.009" stroke="black" stroke-width="2" stroke-miterlimit="10"/>
<path d="M294.03 332.67C294.577 351.412 294.146 371.398 291.973 390.966" stroke="black" stroke-width="2" stroke-miterlimit="10"/>
<path d="M69.4008 390.79H351.975" stroke="black" stroke-width="2" stroke-miterlimit="10"/>
<path d="M213.775 158.018C213.775 158.018 218.339 158.462 221.494 153.196" stroke="black" stroke-width="2" stroke-miterlimit="10"/>
<path d="M191.046 87.9751C191.046 88.0595 226.281 88.8151 226.281 88.8151L224.588 105.299C224.588 105.299 222.988 107.441 216.059 109.579C209.13 111.717 195.873 113.072 193.437 104.215C191.974 98.9206 191.171 93.4661 191.046 87.9751Z" fill="white"/>
<path d="M223.859 78.554C234.672 75.1452 243.058 63.6433 237.067 52.5769C231.703 42.6661 219.037 40.2484 211.77 49.6526C211.77 49.6526 203.89 34.9374 190.753 40.715C185.207 43.1594 180.842 48.9948 179.256 54.7591C176.189 65.8966 183.58 74.5363 193.922 77.354C193.922 77.354 203.997 80.1273 208.944 73.2964C208.944 73.2964 211.264 76.1541 217.57 77.354" stroke="black" stroke-width="2" stroke-miterlimit="10"/>
<path d="M189.224 75.5572L193.464 104.401C193.558 105.077 193.792 105.726 194.152 106.306C194.512 106.887 194.989 107.385 195.553 107.77C198.993 110.058 207.45 113.636 221.774 107.547C222.594 107.196 223.305 106.633 223.833 105.915C224.361 105.196 224.688 104.35 224.779 103.463L227.49 77.0549" stroke="black" stroke-width="2" stroke-miterlimit="10"/>
<path d="M244.116 364.652C244.036 363.03 245.374 360.554 245.374 360.554C245.16 361.975 244.736 363.356 244.116 364.652Z" fill="#2E2E2E"/>
<path d="M280.231 261.127L281.728 262.136L280.702 262.038C280.404 261.442 280.231 261.127 280.231 261.127Z" fill="#2E2E2E"/>
<path d="M217.295 363.408C215.561 362.901 215.277 361.23 215.752 358.866C215.53 360.821 215.908 362.368 217.295 363.408Z" fill="black"/>
<path d="M216.588 334.102C217.195 334.426 217.756 334.828 218.259 335.298C217.659 334.827 217.059 334.449 216.588 334.102Z" fill="black"/>
<path d="M220.214 345.529C220.582 344.373 220.825 343.181 220.939 341.974C220.879 343.189 220.635 344.387 220.214 345.529Z" fill="black"/>
<path d="M223.459 362.79C222.819 363.097 222.149 363.335 221.459 363.501C222.339 363.029 223.032 362.505 223.459 362.79Z" fill="black"/>
<path d="M223.948 364.651C223.997 366.353 224.517 367.504 225.321 368.167C223.57 367.331 223.543 365.673 223.917 364.256C223.936 364.387 223.947 364.519 223.948 364.651Z" fill="black"/>
<path d="M231.467 367.457C231.894 367.093 232.404 366.839 232.952 366.719C232.233 367.219 231.466 367.646 230.663 367.995C230.942 367.832 231.211 367.652 231.467 367.457Z" fill="black"/>
<path d="M236.307 369.016C234.716 369.145 234.401 368.216 234.307 367.381C234.841 368.079 235.267 369.016 236.307 369.016Z" fill="black"/>
<path d="M243.401 365.816C243.153 366.181 242.869 366.52 242.552 366.825C242.715 366.404 243.013 366.049 243.401 365.816Z" fill="black"/>
<path d="M244.712 365.816C244.996 365.883 245.325 365.959 245.72 366.039C245.368 366.088 245.01 366.009 244.712 365.816Z" fill="black"/>
<path d="M256.898 345.356C255.605 345.973 254.547 346.493 253.854 346.84C253.933 346.662 254.058 346.508 254.218 346.396C254.942 345.956 255.84 345.169 256.898 345.356Z" fill="black"/>
<path d="M233.627 364.826C233.614 365.034 233.561 365.237 233.472 365.426C233.45 364.635 233.645 364.195 233.627 364.826Z" fill="#D7E8F0"/>
<path d="M30.3441 131.369L5.01142 133.417C4.52494 133.456 4.03553 133.399 3.57123 133.249C3.10689 133.099 2.67672 132.858 2.30531 132.542C1.93386 132.225 1.6284 131.839 1.40645 131.404C1.18445 130.969 1.05024 130.495 1.01153 130.009C0.934106 129.027 1.24899 128.055 1.8871 127.306C2.52526 126.555 3.43462 126.089 4.41588 126.009L31.3751 123.818" stroke="#ECECEC" stroke-width="2" stroke-miterlimit="10"/>
<path d="M34.2862 123.583H34.2729" stroke="#CCDDE2" stroke-width="2" stroke-miterlimit="10"/>
<path d="M138.906 124.872C142.555 124.872 145.514 121.914 145.514 118.264C145.514 114.614 142.555 111.655 138.906 111.655C135.256 111.655 132.297 114.614 132.297 118.264C132.297 121.914 135.256 124.872 138.906 124.872Z" stroke="#ECECEC" stroke-width="2" stroke-miterlimit="10"/>
<path d="M361.486 389.882V262.139H393.819C396.366 269.892 398.182 277.868 399.241 285.96C404.205 324.55 400.721 382.016 361.486 389.882Z" stroke="#ECECEC" stroke-width="2" stroke-miterlimit="10"/>
<path d="M361.486 302.921H400.885" stroke="#ECECEC" stroke-width="2" stroke-miterlimit="10"/>
<path d="M361.486 340.489H398.823" stroke="#ECECEC" stroke-width="2" stroke-miterlimit="10"/>
</svg>
