<svg width="97" height="10" viewBox="0 0 97 10" fill="none" xmlns="http://www.w3.org/2000/svg">
<path d="M0.603338 8V2.18182H2.89879C3.34008 2.18182 3.71603 2.2661 4.02663 2.43466C4.33724 2.60133 4.57398 2.83333 4.73686 3.13068C4.90163 3.42614 4.98402 3.76705 4.98402 4.15341C4.98402 4.53977 4.90069 4.88068 4.73402 5.17614C4.56735 5.47159 4.32588 5.7017 4.00959 5.86648C3.69519 6.03125 3.31451 6.11364 2.86754 6.11364H1.40447V5.12784H2.66868C2.90542 5.12784 3.1005 5.08712 3.25391 5.00568C3.40921 4.92235 3.52474 4.80777 3.6005 4.66193C3.67815 4.5142 3.71697 4.3447 3.71697 4.15341C3.71697 3.96023 3.67815 3.79167 3.6005 3.64773C3.52474 3.50189 3.40921 3.3892 3.25391 3.30966C3.0986 3.22822 2.90163 3.1875 2.663 3.1875H1.83345V8H0.603338ZM7.66158 8.08523C7.22029 8.08523 6.83866 7.99148 6.51669 7.80398C6.19661 7.61458 5.94946 7.35133 5.77521 7.0142C5.60097 6.67519 5.51385 6.2822 5.51385 5.83523C5.51385 5.38447 5.60097 4.99053 5.77521 4.65341C5.94946 4.31439 6.19661 4.05114 6.51669 3.86364C6.83866 3.67424 7.22029 3.57955 7.66158 3.57955C8.10286 3.57955 8.48355 3.67424 8.80362 3.86364C9.12559 4.05114 9.3737 4.31439 9.54794 4.65341C9.72218 4.99053 9.8093 5.38447 9.8093 5.83523C9.8093 6.2822 9.72218 6.67519 9.54794 7.0142C9.3737 7.35133 9.12559 7.61458 8.80362 7.80398C8.48355 7.99148 8.10286 8.08523 7.66158 8.08523ZM7.66726 7.14773C7.86802 7.14773 8.03563 7.09091 8.1701 6.97727C8.30457 6.86174 8.40589 6.70455 8.47408 6.50568C8.54415 6.30682 8.57919 6.08049 8.57919 5.8267C8.57919 5.57292 8.54415 5.34659 8.47408 5.14773C8.40589 4.94886 8.30457 4.79167 8.1701 4.67614C8.03563 4.56061 7.86802 4.50284 7.66726 4.50284C7.46461 4.50284 7.29415 4.56061 7.15589 4.67614C7.01953 4.79167 6.91631 4.94886 6.84624 5.14773C6.77805 5.34659 6.74396 5.57292 6.74396 5.8267C6.74396 6.08049 6.77805 6.30682 6.84624 6.50568C6.91631 6.70455 7.01953 6.86174 7.15589 6.97727C7.29415 7.09091 7.46461 7.14773 7.66726 7.14773ZM11.3477 8L10.1602 3.63636H11.3846L12.0607 6.56818H12.1005L12.805 3.63636H14.0067L14.7227 6.55114H14.7596L15.4244 3.63636H16.646L15.4613 8H14.18L13.43 5.25568H13.3761L12.6261 8H11.3477ZM19.1708 8.08523C18.7219 8.08523 18.3356 7.99432 18.0117 7.8125C17.6897 7.62879 17.4416 7.36932 17.2674 7.03409C17.0932 6.69697 17.006 6.2983 17.006 5.83807C17.006 5.3892 17.0932 4.99527 17.2674 4.65625C17.4416 4.31723 17.6869 4.05303 18.0032 3.86364C18.3214 3.67424 18.6945 3.57955 19.1225 3.57955C19.4104 3.57955 19.6784 3.62595 19.9265 3.71875C20.1765 3.80966 20.3943 3.94697 20.5799 4.13068C20.7674 4.31439 20.9132 4.54545 21.0174 4.82386C21.1216 5.10038 21.1737 5.42424 21.1737 5.79545V6.12784H17.489V5.37784H20.0344C20.0344 5.2036 19.9966 5.04924 19.9208 4.91477C19.8451 4.7803 19.7399 4.67519 19.6055 4.59943C19.4729 4.52178 19.3185 4.48295 19.1424 4.48295C18.9587 4.48295 18.7958 4.52557 18.6538 4.6108C18.5136 4.69413 18.4038 4.80682 18.3242 4.94886C18.2447 5.08902 18.204 5.24527 18.2021 5.41761V6.13068C18.2021 6.34659 18.2418 6.53314 18.3214 6.69034C18.4028 6.84754 18.5174 6.96875 18.6651 7.05398C18.8129 7.1392 18.988 7.18182 19.1907 7.18182C19.3252 7.18182 19.4483 7.16288 19.56 7.125C19.6718 7.08712 19.7674 7.0303 19.8469 6.95455C19.9265 6.87879 19.9871 6.78598 20.0288 6.67614L21.1481 6.75C21.0913 7.01894 20.9748 7.25379 20.7987 7.45455C20.6244 7.65341 20.399 7.80871 20.1225 7.92045C19.8479 8.0303 19.5307 8.08523 19.1708 8.08523ZM21.9634 8V3.63636H23.1367V4.39773H23.1822C23.2617 4.12689 23.3952 3.92235 23.5827 3.78409C23.7702 3.64394 23.9862 3.57386 24.2305 3.57386C24.2911 3.57386 24.3564 3.57765 24.4265 3.58523C24.4966 3.5928 24.5581 3.60322 24.6112 3.61648V4.69034C24.5543 4.6733 24.4757 4.65814 24.3754 4.64489C24.275 4.63163 24.1831 4.625 24.0998 4.625C23.9218 4.625 23.7627 4.66383 23.6225 4.74148C23.4843 4.81723 23.3744 4.9233 23.293 5.05966C23.2134 5.19602 23.1737 5.35322 23.1737 5.53125V8H21.9634ZM27.0224 8.08523C26.5735 8.08523 26.1871 7.99432 25.8633 7.8125C25.5413 7.62879 25.2932 7.36932 25.119 7.03409C24.9447 6.69697 24.8576 6.2983 24.8576 5.83807C24.8576 5.3892 24.9447 4.99527 25.119 4.65625C25.2932 4.31723 25.5385 4.05303 25.8548 3.86364C26.1729 3.67424 26.546 3.57955 26.9741 3.57955C27.262 3.57955 27.5299 3.62595 27.7781 3.71875C28.0281 3.80966 28.2459 3.94697 28.4315 4.13068C28.619 4.31439 28.7648 4.54545 28.869 4.82386C28.9731 5.10038 29.0252 5.42424 29.0252 5.79545V6.12784H25.3406V5.37784H27.886C27.886 5.2036 27.8481 5.04924 27.7724 4.91477C27.6966 4.7803 27.5915 4.67519 27.457 4.59943C27.3245 4.52178 27.1701 4.48295 26.994 4.48295C26.8103 4.48295 26.6474 4.52557 26.5053 4.6108C26.3652 4.69413 26.2553 4.80682 26.1758 4.94886C26.0962 5.08902 26.0555 5.24527 26.0536 5.41761V6.13068C26.0536 6.34659 26.0934 6.53314 26.1729 6.69034C26.2544 6.84754 26.369 6.96875 26.5167 7.05398C26.6644 7.1392 26.8396 7.18182 27.0423 7.18182C27.1767 7.18182 27.2998 7.16288 27.4116 7.125C27.5233 7.08712 27.619 7.0303 27.6985 6.95455C27.7781 6.87879 27.8387 6.78598 27.8803 6.67614L28.9996 6.75C28.9428 7.01894 28.8263 7.25379 28.6502 7.45455C28.476 7.65341 28.2506 7.80871 27.9741 7.92045C27.6995 8.0303 27.3822 8.08523 27.0224 8.08523ZM31.4229 8.07102C31.0915 8.07102 30.7913 7.9858 30.5224 7.81534C30.2553 7.64299 30.0432 7.39015 29.886 7.05682C29.7307 6.72159 29.6531 6.31061 29.6531 5.82386C29.6531 5.32386 29.7335 4.90814 29.8945 4.5767C30.0555 4.24337 30.2695 3.99432 30.5366 3.82955C30.8055 3.66288 31.1 3.57955 31.4201 3.57955C31.6644 3.57955 31.868 3.62121 32.0309 3.70455C32.1957 3.78598 32.3282 3.88826 32.4286 4.01136C32.5309 4.13258 32.6085 4.25189 32.6616 4.36932H32.6985V2.18182H33.9059V8H32.7127V7.30114H32.6616C32.6048 7.42235 32.5243 7.54261 32.4201 7.66193C32.3178 7.77936 32.1843 7.87689 32.0195 7.95455C31.8567 8.0322 31.6578 8.07102 31.4229 8.07102ZM31.8065 7.10795C32.0015 7.10795 32.1663 7.05492 32.3008 6.94886C32.4371 6.84091 32.5413 6.69034 32.6133 6.49716C32.6871 6.30398 32.7241 6.07765 32.7241 5.81818C32.7241 5.55871 32.6881 5.33333 32.6161 5.14205C32.5442 4.95076 32.44 4.80303 32.3036 4.69886C32.1673 4.5947 32.0015 4.54261 31.8065 4.54261C31.6076 4.54261 31.44 4.59659 31.3036 4.70455C31.1673 4.8125 31.064 4.96212 30.994 5.15341C30.9239 5.3447 30.8888 5.56629 30.8888 5.81818C30.8888 6.07197 30.9239 6.2964 30.994 6.49148C31.0659 6.68466 31.1692 6.83617 31.3036 6.94602C31.44 7.05398 31.6076 7.10795 31.8065 7.10795ZM36.7752 8V2.18182H37.9854V4.36932H38.0224C38.0754 4.25189 38.1521 4.13258 38.2525 4.01136C38.3548 3.88826 38.4873 3.78598 38.6502 3.70455C38.815 3.62121 39.0195 3.57955 39.2638 3.57955C39.582 3.57955 39.8756 3.66288 40.1445 3.82955C40.4135 3.99432 40.6284 4.24337 40.7894 4.5767C40.9504 4.90814 41.0309 5.32386 41.0309 5.82386C41.0309 6.31061 40.9523 6.72159 40.7951 7.05682C40.6398 7.39015 40.4277 7.64299 40.1587 7.81534C39.8917 7.9858 39.5924 8.07102 39.261 8.07102C39.0262 8.07102 38.8263 8.0322 38.6616 7.95455C38.4987 7.87689 38.3652 7.77936 38.261 7.66193C38.1568 7.54261 38.0773 7.42235 38.0224 7.30114H37.9684V8H36.7752ZM37.9599 5.81818C37.9599 6.07765 37.9959 6.30398 38.0678 6.49716C38.1398 6.69034 38.244 6.84091 38.3803 6.94886C38.5167 7.05492 38.6824 7.10795 38.8775 7.10795C39.0745 7.10795 39.2411 7.05398 39.3775 6.94602C39.5138 6.83617 39.6171 6.68466 39.6871 6.49148C39.7591 6.2964 39.7951 6.07197 39.7951 5.81818C39.7951 5.56629 39.7601 5.3447 39.69 5.15341C39.6199 4.96212 39.5167 4.8125 39.3803 4.70455C39.244 4.59659 39.0763 4.54261 38.8775 4.54261C38.6805 4.54261 38.5138 4.5947 38.3775 4.69886C38.243 4.80303 38.1398 4.95076 38.0678 5.14205C37.9959 5.33333 37.9599 5.55871 37.9599 5.81818ZM42.445 9.63636C42.2915 9.63636 42.1476 9.62405 42.0131 9.59943C41.8806 9.5767 41.7707 9.54735 41.6836 9.51136L41.9563 8.60795C42.0984 8.65152 42.2262 8.67519 42.3398 8.67898C42.4554 8.68277 42.5548 8.65625 42.6381 8.59943C42.7234 8.54261 42.7925 8.44602 42.8455 8.30966L42.9165 8.125L41.3512 3.63636H42.6239L43.5273 6.84091H43.5728L44.4847 3.63636H45.766L44.07 8.47159C43.9885 8.70644 43.8777 8.91098 43.7376 9.08523C43.5993 9.26136 43.4241 9.39678 43.212 9.49148C42.9999 9.58807 42.7442 9.63636 42.445 9.63636Z" fill="black" fill-opacity="0.7"/>
<g clip-path="url(#clip0_1_194)">
<path d="M76.8661 0H55.0552C53.9203 0 53 0.93227 53 2.08196V7.94619C53 9.08024 53.9079 10 55.0274 10H63.2407C64.1641 10 64.913 9.24136 64.913 8.30596V5.8783C64.913 4.95542 64.1749 4.20616 63.2623 4.20616H59.8683C59.3031 4.20616 58.8461 4.67073 58.8461 5.24167C58.8461 5.81417 59.3047 6.27718 59.8683 6.27718H62.0301C62.4702 6.27718 62.8253 6.63851 62.8253 7.08275V7.94463H55.9138C55.4505 7.94463 55.0738 7.56452 55.0738 7.0937V2.90005C55.0738 2.44643 55.4366 2.0804 55.8829 2.0804H75.9751C76.4445 2.0804 76.8244 2.4652 76.8244 2.94072V7.09526C76.8244 7.56452 76.4492 7.94619 75.9844 7.94619H69.0497V5.24011C69.0497 4.66917 68.5926 4.20616 68.029 4.20616C67.4654 4.20616 67.0084 4.66917 67.0084 5.24011V7.94619C67.0084 9.08024 67.9163 10 69.0358 10H76.8939C78.0134 10 78.9213 9.08024 78.9213 7.94619V2.08196C78.9213 0.93227 78.001 0 76.8661 0Z" fill="black" fill-opacity="0.7"/>
<path d="M82.0034 0C81.4243 0 80.9549 0.47552 80.9549 1.0621V8.9379C80.9549 9.52448 81.4243 10 82.0034 10C82.5824 10 83.0519 9.52448 83.0519 8.9379V1.0621C83.0519 0.47552 82.5824 0 82.0034 0Z" fill="black" fill-opacity="0.7"/>
<path d="M95.9731 0H86.1154C85.5487 0 85.0886 0.466135 85.0886 1.0402C85.0886 1.61427 85.5487 2.0804 86.1154 2.0804H89.9958V8.95667C89.9958 9.53074 90.456 9.99687 91.0227 9.99687H91.0643C91.631 9.99687 92.0912 9.53074 92.0912 8.95667V2.08196H95.9716C96.5383 2.08196 96.9984 1.61583 96.9984 1.04176C96.9984 0.467699 96.5383 0.00156421 95.9716 0.00156421L95.9731 0Z" fill="black" fill-opacity="0.7"/>
<path d="M95.9515 10.0001C96.5306 10.0001 97 9.52454 97 8.93795C97 8.35137 96.5306 7.87585 95.9515 7.87585C95.3725 7.87585 94.9031 8.35137 94.9031 8.93795C94.9031 9.52454 95.3725 10.0001 95.9515 10.0001Z" fill="black" fill-opacity="0.7"/>
</g>
<defs>
<clipPath id="clip0_1_194">
<rect width="44" height="10" fill="white" transform="translate(53)"/>
</clipPath>
</defs>
</svg>
